<svg xmlns="http://www.w3.org/2000/svg" width="118" height="27"><defs><clipPath id="a"><path d="M0 88h200v-88h-200v88z"/></clipPath></defs><path d="M66.239 13.845c-2.503 0-4.532-2.027-4.532-4.532 0-2.503 2.029-4.533 4.532-4.533s4.532 2.03 4.532 4.533c0 2.505-2.029 4.532-4.532 4.532m-11.928 0c-2.503 0-4.533-2.027-4.533-4.532 0-2.503 2.03-4.533 4.533-4.533 2.503 0 4.532 2.03 4.532 4.533 0 2.505-2.029 4.532-4.532 4.532m-23.218 0c-2.503 0-4.533-2.027-4.533-4.532 0-2.503 2.03-4.533 4.533-4.533 2.503 0 4.532 2.03 4.532 4.533 0 2.505-2.029 4.532-4.532 4.532m82.46-13.837h-109.099c-2.45 0-4.452 2.004-4.452 4.455v9.382c0 2.45 2.002 4.454 4.452 4.454h52.323v1.239c-.453.004-.903.052-1.273.191-1.272.478-10.02 3.657-10.337 5.248-.32 1.591.953 1.591 3.339 1.591h20.993000000000002c2.386 0 3.657 0 3.341-1.591-.319-1.591-9.065-4.771-10.339-5.248-.369-.139-.819-.187-1.273-.191v-1.239h52.323c2.448 0 4.454-2.004 4.454-4.454v-9.382c0-2.451-2.006-4.455-4.454-4.455" fill="#00669c" clip-path="url(#a)"/></svg>